Coordinates
version=1
nRows=7
nColumns=40
inDegrees=yes

Units are S.I. units (second, meters, Newtons, ...)
Angles are in degrees.

endheader
time	pelvis_tilt	pelvis_list	pelvis_rotation	pelvis_tx	pelvis_ty	pelvis_tz	hip_flexion_r	hip_adduction_r	hip_rotation_r	knee_angle_r	knee_angle_r_beta	ankle_angle_r	subtalar_angle_r	mtp_angle_r	hip_flexion_l	hip_adduction_l	hip_rotation_l	knee_angle_l	knee_angle_l_beta	ankle_angle_l	subtalar_angle_l	mtp_angle_l	lumbar_extension	lumbar_bending	lumbar_rotation	arm_flex_r	arm_add_r	arm_rot_r	elbow_flex_r	pro_sup_r	wrist_flex_r	wrist_dev_r	arm_flex_l	arm_add_l	arm_rot_l	elbow_flex_l	pro_sup_l	wrist_flex_l	wrist_dev_l
     47.46500000	     -5.29631319	     -4.46034835	     10.27628591	      0.95206432	      0.92125555	      0.50583862	      7.10321406	      3.70093107	    -17.66741491	     16.54719126	     16.54719126	     16.32397904	     -6.79280025	     -3.45447772	     30.33586136	     -5.70723972	      1.16403331	     14.58311718	     14.58311718	      5.41465346	     -0.90583133	      1.12389504	     -9.40261420	      3.97562931	      2.47049021	     51.80955060	    -17.64586169	     -6.63098605	     66.82988129	     45.07282083	      0.00000000	      0.00000000	    -16.86064098	     -8.15522890	     13.76878809	     31.64959110	     43.48307124	      0.00000000	      0.00000000
     47.48450000	     -5.34961302	     -4.63245676	     10.44202842	      0.95253625	      0.92015208	      0.50302248	      6.68340521	      3.76793131	    -17.79317751	     16.51151720	     16.51151720	     16.74581689	     -6.69971311	     -3.32285955	     29.95410479	     -5.62836800	      1.22445794	     14.12214954	     14.12214954	      3.59420738	     -1.51001821	     -1.36145899	     -9.24398098	      3.98404192	      2.55077152	     53.60571606	    -17.69471504	     -6.69175026	     67.44692908	     45.10392363	      0.00000000	      0.00000000	    -17.37400194	     -8.39794164	     16.44381117	     31.76947365	     43.29838755	      0.00000000	      0.00000000
     47.50400000	     -5.38939122	     -4.76136812	     10.58146490	      0.95319935	      0.91903096	      0.50003546	      6.26731181	      3.77934118	    -17.83789271	     16.54392796	     16.54392796	     17.10071342	     -6.73470591	     -3.39600587	     29.85768816	     -5.57586851	      1.01575187	     14.48974436	     14.48974436	      2.91941824	     -1.64045756	     -1.38907725	     -9.13110487	      3.92263546	      2.67505535	     55.13304162	    -17.82144212	     -6.76461721	     68.06540276	     45.09530800	      0.00000000	      0.00000000	    -17.68194502	     -8.23910931	     16.61728738	     31.67146680	     43.28491893	      0.00000000	      0.00000000
     47.52350000	     -5.35670053	     -4.89126283	     10.72895961	      0.95425764	      0.91789101	      0.49676274	      5.76946285	      3.76259229	    -17.99547852	     16.66039054	     16.66039054	     17.69340246	     -6.51381551	     -3.03054514	     29.60755362	     -5.49511690	      1.08388550	     14.76732482	     14.76732482	      1.17010453	     -2.57335813	     -3.95748933	     -9.03602641	      3.87766693	      2.53252027	     56.45276513	    -17.74052021	     -6.55545860	     68.69261788	     45.09919093	      0.00000000	      0.00000000	    -17.93826302	     -8.17879843	     17.88585208	     31.36279394	     43.24494489	      0.00000000	      0.00000000
     47.54300000	     -5.35768205	     -4.95837998	     10.83910965	      0.95542636	      0.91693630	      0.49336418	      5.24131700	      3.70673276	    -17.99190087	     16.64825501	     16.64825501	     17.99571580	     -6.56713731	     -3.05089643	     29.58284952	     -5.38809915	      1.03249519	     15.57972352	     15.57972352	      0.59611165	     -3.03439887	     -3.98058446	     -8.94299466	      3.72037985	      2.64176220	     57.49096786	    -17.90269121	     -6.67216200	     69.03739620	     45.09877843	      0.00000000	      0.00000000	    -18.01058609	     -8.07782865	     17.99298187	     31.29771946	     43.24155352	      0.00000000	      0.00000000
     47.56250000	     -5.33698550	     -5.11219652	     10.98655492	      0.95673764	      0.91601121	      0.48972906	      4.67040581	      3.74092541	    -18.05970598	     16.58589507	     16.58589507	     18.29973192	     -6.52658923	     -2.93500016	     29.73410080	     -5.30351659	      1.35502044	     16.73658257	     16.73658257	      0.10119585	     -4.01896556	     -4.29672799	     -8.82065797	      3.68167668	      2.62830490	     58.29531652	    -17.90424763	     -6.79694832	     69.37231246	     45.10120999	      0.00000000	      0.00000000	    -17.95311844	     -7.95465043	     18.26557049	     31.03123174	     43.23600532	      0.00000000	      0.00000000
     47.58200000	     -5.34603576	     -5.00462355	     11.04763747	      0.95824407	      0.91552503	      0.48591379	      4.04280100	      3.48663696	    -18.03156907	     16.47336014	     16.47336014	     18.48272459	     -6.54821977	     -2.87444236	     29.67500047	     -5.01570666	      1.34922253	     17.63929416	     17.63929416	     -0.16174758	     -4.54581936	     -4.38605666	     -8.74379312	      3.29300885	      2.64850158	     58.89153839	    -17.99202312	     -6.88208572	     69.55893983	     45.10209302	      0.00000000	      0.00000000	    -17.82403091	     -7.92655636	     18.33017107	     30.95759937	     43.23669043	      0.00000000	      0.00000000
